<mxfile host="app.diagrams.net" modified="2021-11-12T08:04:37.128Z" agent="5.0 (Macintosh; Intel Mac OS X 10_15_7) AppleWebKit/537.36 (KHTML, like Gecko) Chrome/95.0.4638.54 Safari/537.36" etag="P2vNQ8H4rHqMTv2r6naq" version="15.7.1" type="github">
  <diagram id="wo6MxlgFiB8TFSa0Bwf_" name="Page-1">
    <mxGraphModel dx="755" dy="1584" grid="1" gridSize="10" guides="1" tooltips="1" connect="1" arrows="1" fold="1" page="1" pageScale="1" pageWidth="827" pageHeight="1169" math="0" shadow="0">
      <root>
        <mxCell id="0" />
        <mxCell id="1" parent="0" />
        <mxCell id="vtH4X7_AqRWKTPGCKTaB-1" style="edgeStyle=orthogonalEdgeStyle;rounded=0;orthogonalLoop=1;jettySize=auto;html=1;exitX=1;exitY=0.5;exitDx=0;exitDy=0;" edge="1" parent="1" source="vtH4X7_AqRWKTPGCKTaB-2" target="vtH4X7_AqRWKTPGCKTaB-4">
          <mxGeometry relative="1" as="geometry" />
        </mxCell>
        <mxCell id="vtH4X7_AqRWKTPGCKTaB-2" value="&lt;div class=&quot;okr-block-clipboard&quot;&gt;&lt;/div&gt;&lt;div&gt;tapd创建需求/迭代/bug &lt;/div&gt;" style="rounded=1;whiteSpace=wrap;html=1;" vertex="1" parent="1">
          <mxGeometry x="440" y="-150" width="80" height="40" as="geometry" />
        </mxCell>
        <mxCell id="vtH4X7_AqRWKTPGCKTaB-3" style="edgeStyle=orthogonalEdgeStyle;rounded=0;orthogonalLoop=1;jettySize=auto;html=1;exitX=1;exitY=0.5;exitDx=0;exitDy=0;entryX=0;entryY=0.5;entryDx=0;entryDy=0;" edge="1" parent="1" source="vtH4X7_AqRWKTPGCKTaB-4" target="vtH4X7_AqRWKTPGCKTaB-6">
          <mxGeometry relative="1" as="geometry" />
        </mxCell>
        <mxCell id="vtH4X7_AqRWKTPGCKTaB-4" value="&lt;div class=&quot;okr-block-clipboard&quot;&gt;&lt;/div&gt;&lt;div&gt;创建人流转状态到开发&lt;/div&gt;" style="rounded=1;whiteSpace=wrap;html=1;" vertex="1" parent="1">
          <mxGeometry x="550" y="-150" width="80" height="40" as="geometry" />
        </mxCell>
        <mxCell id="vtH4X7_AqRWKTPGCKTaB-5" style="edgeStyle=orthogonalEdgeStyle;rounded=0;orthogonalLoop=1;jettySize=auto;html=1;exitX=1;exitY=0.5;exitDx=0;exitDy=0;entryX=0;entryY=0.5;entryDx=0;entryDy=0;" edge="1" parent="1" source="vtH4X7_AqRWKTPGCKTaB-6" target="vtH4X7_AqRWKTPGCKTaB-8">
          <mxGeometry relative="1" as="geometry" />
        </mxCell>
        <mxCell id="vtH4X7_AqRWKTPGCKTaB-6" value="&lt;div class=&quot;okr-block-clipboard&quot;&gt;&lt;/div&gt;&lt;div&gt;代码push,并commit关联&lt;/div&gt;" style="rounded=1;whiteSpace=wrap;html=1;" vertex="1" parent="1">
          <mxGeometry x="660" y="-150" width="80" height="40" as="geometry" />
        </mxCell>
        <mxCell id="vtH4X7_AqRWKTPGCKTaB-7" style="edgeStyle=orthogonalEdgeStyle;rounded=0;orthogonalLoop=1;jettySize=auto;html=1;exitX=1;exitY=0.5;exitDx=0;exitDy=0;entryX=0;entryY=0.5;entryDx=0;entryDy=0;" edge="1" parent="1" source="vtH4X7_AqRWKTPGCKTaB-8" target="vtH4X7_AqRWKTPGCKTaB-10">
          <mxGeometry relative="1" as="geometry" />
        </mxCell>
        <mxCell id="vtH4X7_AqRWKTPGCKTaB-8" value="&lt;div class=&quot;okr-block-clipboard&quot;&gt;&lt;/div&gt;&lt;div&gt;开发流转需求至完成&lt;/div&gt;" style="rounded=1;whiteSpace=wrap;html=1;" vertex="1" parent="1">
          <mxGeometry x="770" y="-150" width="80" height="40" as="geometry" />
        </mxCell>
        <mxCell id="vtH4X7_AqRWKTPGCKTaB-9" style="edgeStyle=orthogonalEdgeStyle;rounded=0;orthogonalLoop=1;jettySize=auto;html=1;exitX=1;exitY=0.5;exitDx=0;exitDy=0;entryX=0;entryY=0.5;entryDx=0;entryDy=0;" edge="1" parent="1" source="vtH4X7_AqRWKTPGCKTaB-10" target="vtH4X7_AqRWKTPGCKTaB-11">
          <mxGeometry relative="1" as="geometry" />
        </mxCell>
        <mxCell id="vtH4X7_AqRWKTPGCKTaB-10" value="&lt;div class=&quot;okr-block-clipboard&quot;&gt;&lt;/div&gt;&lt;div&gt;触发tapd自动化构建流水线&lt;/div&gt;" style="rounded=1;whiteSpace=wrap;html=1;" vertex="1" parent="1">
          <mxGeometry x="880" y="-150" width="80" height="40" as="geometry" />
        </mxCell>
        <mxCell id="vtH4X7_AqRWKTPGCKTaB-19" style="edgeStyle=orthogonalEdgeStyle;rounded=0;orthogonalLoop=1;jettySize=auto;html=1;exitX=0.5;exitY=1;exitDx=0;exitDy=0;entryX=0.5;entryY=0;entryDx=0;entryDy=0;" edge="1" parent="1" source="vtH4X7_AqRWKTPGCKTaB-11" target="vtH4X7_AqRWKTPGCKTaB-18">
          <mxGeometry relative="1" as="geometry" />
        </mxCell>
        <mxCell id="vtH4X7_AqRWKTPGCKTaB-11" value="&lt;div class=&quot;okr-block-clipboard&quot;&gt;&lt;/div&gt;&lt;div&gt;触发jenkins自动构建&lt;/div&gt;" style="rounded=1;whiteSpace=wrap;html=1;" vertex="1" parent="1">
          <mxGeometry x="995" y="-150" width="80" height="40" as="geometry" />
        </mxCell>
        <mxCell id="vtH4X7_AqRWKTPGCKTaB-13" value="&lt;div class=&quot;okr-block-clipboard&quot;&gt;&lt;/div&gt;&lt;div&gt;代码push,并commit关联&lt;/div&gt;" style="rounded=1;whiteSpace=wrap;html=1;" vertex="1" parent="1">
          <mxGeometry x="660" y="-80" width="80" height="40" as="geometry" />
        </mxCell>
        <mxCell id="vtH4X7_AqRWKTPGCKTaB-15" value="&lt;div class=&quot;okr-block-clipboard&quot;&gt;&lt;/div&gt;&lt;div&gt;开发流转需求至完成&lt;/div&gt;" style="rounded=1;whiteSpace=wrap;html=1;" vertex="1" parent="1">
          <mxGeometry x="770" y="-80" width="80" height="40" as="geometry" />
        </mxCell>
        <mxCell id="vtH4X7_AqRWKTPGCKTaB-17" value="&lt;div class=&quot;okr-block-clipboard&quot;&gt;&lt;/div&gt;&lt;div&gt;触发tapd自动化构建流水线&lt;/div&gt;" style="rounded=1;whiteSpace=wrap;html=1;" vertex="1" parent="1">
          <mxGeometry x="880" y="-80" width="80" height="40" as="geometry" />
        </mxCell>
        <mxCell id="vtH4X7_AqRWKTPGCKTaB-18" value="&lt;div class=&quot;okr-block-clipboard&quot;&gt;&lt;/div&gt;&lt;div&gt;触发jenkins自动构建&lt;/div&gt;" style="rounded=1;whiteSpace=wrap;html=1;" vertex="1" parent="1">
          <mxGeometry x="995" y="-80" width="80" height="40" as="geometry" />
        </mxCell>
      </root>
    </mxGraphModel>
  </diagram>
</mxfile>
